<svg id="Layer_1" data-name="Layer 1" xmlns="http://www.w3.org/2000/svg" viewBox="0 0 67.76 67.76">
    <defs>
        <style>
            .cls-1{fill:#f57f20;}
            .cls-2, .cls-3, .cls-4, .cls-5{fill:none;stroke-miterlimit:10;stroke-width:13.44px;}
            .cls-2{stroke:#7bd1f5;}
            .cls-3{stroke:#fad24b;}
            .cls-4{stroke:#b3d56e;}
            .cls-5{stroke:#f57f20;}
        </style>
    </defs>
    <path class="cls-2" d="M30.77,50.3a27.22,27.22,0,0,1,38.5.23" transform="translate(-16.21 -35.72)"/>
    <path class="cls-3" d="M31.08,88.88a27.28,27.28,0,0,1-.31-38.58" transform="translate(-16.21 -35.72)"/>
    <path class="cls-4" d="M69.35,88.88a27.17,27.17,0,0,1-38.43-.16" transform="translate(-16.21 -35.72)"/>
    <path class="cls-5" d="M69.17,50.44a27.18,27.18,0,0,1,.18,38.44" transform="translate(-16.21 -35.72)"/>
    <path class="cls-1" d="M42.71,62.6A9.69,9.69,0,0,0,56.42,76.31l6.86-6.86L56.42,62.6A9.69,9.69,0,0,0,42.71,62.6Z" transform="translate(-16.21 -35.72)"/>
</svg>
